<?xml version="1.0" standalone="no"?>
<!DOCTYPE svg PUBLIC "-//W3C//DTD SVG 1.1//EN" "http://www.w3.org/Graphics/SVG/1.1/DTD/svg11.dtd" >
<svg xmlns="http://www.w3.org/2000/svg">
<metadata></metadata>
<defs>
<font id="musicos-variant-comicsregular" horiz-adv-x="682" >
<font-face units-per-em="2048" ascent="1638" descent="-410" />
<missing-glyph horiz-adv-x="569" />
<glyph horiz-adv-x="2048" />
<glyph horiz-adv-x="2048" />
<glyph unicode="&#xd;" horiz-adv-x="569" />
<glyph unicode=" "  horiz-adv-x="569" />
<glyph unicode="&#x09;" horiz-adv-x="569" />
<glyph unicode="&#xa0;" horiz-adv-x="569" />
<glyph unicode="!" horiz-adv-x="486" d="M76.5 39.5q-56.5 83.5 75.5 87.5t56.5 -83.5t-132 -4zM129 347l50 503q12 13 26 32l39 25l54 7q14 -13 33 -26q5 -22 0 -45l-116 -508l-16 -39q-17 -15 -39 -28q-21 6 -30 30q-4 23 -1 49z" />
<glyph unicode="&#x22;" horiz-adv-x="383" d="M145 590l6 23l9 61l20 49q8 22 23 44q12 19 32 38l35 38l49 17q24 -8 41 -32q-8 -23 -15 -55l-43 -93q-10 -22 -29 -44l-23 -43q-12 -19 -32 -41l-35 -32q-31 2 -32 35z" />
<glyph unicode="#" horiz-adv-x="1139" />
<glyph unicode="$" horiz-adv-x="1139" />
<glyph unicode="%" horiz-adv-x="1821" />
<glyph unicode="&#x26;" horiz-adv-x="1366" />
<glyph unicode="'" horiz-adv-x="391" d="M145 590l6 23l9 61l20 49q8 22 23 44q12 19 32 38l35 38l49 17q24 -8 41 -32q-8 -23 -15 -55l-43 -93q-10 -22 -29 -44l-23 -43q-12 -19 -32 -41l-35 -32q-31 2 -32 35z" />
<glyph unicode="(" />
<glyph unicode=")" />
<glyph unicode="*" horiz-adv-x="797" />
<glyph unicode="+" horiz-adv-x="1196" />
<glyph unicode="," horiz-adv-x="400" d="M115 -105l3 14l97 223q16 18 40 40l53 23q29 -4 50 -30l-13 -63l-183 -293l-34 -4l-10 37z" />
<glyph unicode="-" horiz-adv-x="536" d="M71 392q19 19 49 25l337 10q29 -14 16 -41l-48 -29l-100 -35q-79 -10 -228 27q-19 17 -26 43z" />
<glyph unicode="." horiz-adv-x="379" d="M0 52q31 101 144 116l52 -4l32 -20q12 -14 10.5 -30t-52.5 -63t-138 -51q-18 1 -36 12z" />
<glyph unicode="/" horiz-adv-x="569" />
<glyph unicode="0" horiz-adv-x="518" d="M210 474q15 230 231 283.5t206 -410.5q-41 -335 -200 -381q-118 -9 -185 134.5t-52 373.5zM301.5 446q-18.5 -156 43.5 -250.5t132 -38t71 253.5t-113.5 194t-133 -159z" />
<glyph unicode="1" horiz-adv-x="316" d="M-88 540q88 195 216 198l28 -44q56 -153 25 -564q3 -149 -217 -142q116 308 93 592z" />
<glyph unicode="2" horiz-adv-x="610" d="M152 485q18 305 359 244q256 -203 -210 -569q748 -100 -42 -152q-278 -17 164 465q74 167 -116 142z" />
<glyph unicode="3" horiz-adv-x="565" d="M152 485q18 305 359 244q256 -203 -110 -349q518 -325 -142 -372l-73 60q463 50 78 321q111 77 159 84q74 167 -116 142z" />
<glyph unicode="4" horiz-adv-x="553" d="M-110 209l108 387q33 170 131 152q33 -130 -113 -445l114 26l10 101l111 -2l-15 -79l164 26l4 -120l-174 -25l20 -127l-1 -64q5 -47 -148 -36l27 222z" />
<glyph unicode="5" horiz-adv-x="541" d="M186 68q463 50 43 321l9 244q64 67 383 56l31 -84l-285 -37l-6 -128q558 -385 -102 -432z" />
<glyph unicode="6" horiz-adv-x="570" d="M210.5 276.5q19.5 140.5 246.5 445.5l150 -94l-194 -193q294 37 309 -228q1 -212 -204 -241q-154 -5 -240.5 82.5t-67 228zM321 236q-21 -82 48.5 -132t148 -20t79.5 133.5t-127.5 102t-148.5 -83.5z" />
<glyph unicode="7" horiz-adv-x="464" d="M-244 509q-5 56 12 141l368 12l21 -44q37 -145 -33 -520q-11 -137 -212 -109q136 271 142 535z" />
<glyph unicode="8" horiz-adv-x="504" d="M210 238.5q16 108.5 232 154t231 -213.5q-43 -158 -212 -180q-125 -4 -196 63.5t-55 176zM216.5 570.5q16.5 105.5 232 150t231.5 -208.5q-44 -154 -212 -175q-126 -4 -197 62t-54.5 171.5zM319 244.5q-17 -69.5 40.5 -111.5t122 -16.5t66 113t-105 86t-123.5 -71z M338 573.5q-17 -67.5 39 -108.5t119.5 -16.5t64.5 110t-102.5 84t-120.5 -69z" />
<glyph unicode="9" horiz-adv-x="595" d="M210 485q3 213 209 237q153 3 238 -86.5t62.5 -229.5t-255.5 -440l-148 96l198 189q-295 -31 -304 234zM334.5 472.5q-3.5 -103.5 125 -104.5t150.5 81q23 82 -45.5 133t-147.5 22.5t-82.5 -132z" />
<glyph unicode=":" horiz-adv-x="544" d="M29 90q64 112 193.5 105.5t38 -101.5t-144.5 -94q-116 7 -87 90zM32 292q-17 13 24.5 80.5t119 79t108.5 4.5q8 -21 8 -48q-79 -170 -260 -116z" />
<glyph unicode=";" horiz-adv-x="494" d="M-6 -241l88 361l39 45q24 9 53 26q27 -10 49 -37l-158 -351q-16 -20 -42 -40l-20 -8zM120 412l158 59q65 -20 25 -92q-68 -73 -172 -85q-79 16 -11 118z" />
<glyph unicode="&#x3c;" horiz-adv-x="566" d="M-54 742l6 25q8 24 31 42q26 -7 45 -30q17 -16 34 -40q15 -17 104 -186l15 -61q-1 -32 -34 -34q-199 263 -201 284zM138 776l3 9l6 30q13 23 40 34q20 -12 189 -330l-12 -24q-14 2 -30 9l-49 24q-15 17 -147 248z" />
<glyph unicode="=" horiz-adv-x="1196" />
<glyph unicode="&#x3e;" horiz-adv-x="627" d="M217 504l129 264l51 21q26 -8 39 -36q-5 -27 -144 -285l-39 -30l-18 -3l-6 3zM451 507l87 261q15 17 36 36l48 21q26 -4 45 -27l-12 -57l-129 -228l-36 -36l-30 -3z" />
<glyph unicode="?" horiz-adv-x="707" d="M30 602q52 213 198 246t281 -48.5t-178 -518.5q-128 -98 -144 55q363 353 227.5 386t-263.5 -108l-53 -48q-14 -12 -33 -23q-13 -1 -25 9zM98 71q102 74 200 52.5t-54 -115.5q-163 11 -146 63z" />
<glyph unicode="@" horiz-adv-x="2079" />
<glyph unicode="A" horiz-adv-x="680" d="M-67 65q190 743 339 743q7 0 14 -2l310 -707q-11 -101 -43 -101h-2q-34 4 -170 170q-113 25 -178 25q-66 -1 -81 -27q-29 -52 -75 -117q-21 -29 -45 -29q-31 0 -69 45zM150 333q97 -4 213 -56l-118 312q-4 10 -10 10q-29 0 -85 -266z" />
<glyph unicode="B" horiz-adv-x="670" d="M35 49q6 19 20 36q18 8 41 13l13 -4l9 -6l7 23l11 48l-12 123q-8 21 -12 45l-7 50l-5 104l9 48l-9 114l5 29q-5 18 -6 42q9 14 25 27l33 21l44 8l93 -14q17 -8 39 -15l45 -6l35 -18l45 -6q20 -7 39 -18l35 -14l32 -24q13 -11 26 -28l15 -38l4 -39l-7 -10q-3 -20 -9 -41 l-19 -11l-37 -9l-22 -18l-21 -3q-33 -14 -43 -19l71 -32q17 -4 36 -17q16 -9 38 -17q10 -14 26 -28l22 -31l13 -42l-3 -56q-6 -18 -16 -38q-15 -8 -33 -21l-70 -34q-17 -8 -32 -21l-38 -14l-33 -21q-17 -9 -34 -21l-43 -11l-31 -21l-46 -6l-34 -16l-123 -36h-41l26 4l-32 21 l-23 30zM221 471q14 -12 38 -14l41 14q19 10 42 16l77 38l30 27l19 37q-1 19 -12 34l-37 20l-46 10l-110 4q-18 -7 -35 -26zM249 256q7 -23 8 -53v-44l7 -10q27 3 56 10l63 8q24 14 53 21l45 24l42 30l22 23l12 21l-9 15q-26 6 -53 17q-27 6 -55 14t-60 13l-71 2 q-27 -2 -57 -17q-4 -24 -1 -41q1 -23 -2 -33z" />
<glyph unicode="C" horiz-adv-x="863" d="M3 159l13 28q3 26 17 53q9 21 26 49q13 19 38 66l49 89l166 168l116 68q48 20 95 33l42 5h56l12 -4q16 -40 34 -59q15 -20 23 -48l-3 -44l-20 -6h-138q-25 -1 -58 -7q-20 -15 -49 -24l-83 -58l-103 -106l-30 -39q-17 -17 -30 -41l-25 -44q-11 -21 -20 -51q14 -18 39 -31 q22 -8 49 -13l134 -4l59 7q22 10 55 17l53 25l46 21q48 24 87 69l69 31l43 8h55l15 -32l1 -17l-7 -37l-32 -37l-46 -28q-28 -4 -57 -14q-20 -15 -44 -23q-19 -14 -45 -24l-92 -48l-49 -16q-24 -13 -55 -17q-23 -9 -53 -18l-196 -2l-95 44l-36 37l-23 48z" />
<glyph unicode="D" horiz-adv-x="710" d="M76 707l49 15l187 -15l366 -163l88 -88l11 -38q6 -18 10 -41l-24 -77l-464 -290q-7 -17 -10 -41q-12 -13 -31 -22q-73 34 -73 111q0 10 1 21l-13 423l-11 42l-17 32l-27 6l-10 -3zM266 180l19 -26q19 2 39 11l278 218l11 34l-14 32l-275 119q-19 -3 -43 -12z" />
<glyph unicode="E" horiz-adv-x="693" d="M-13 638q168 42 446 42q60 0 125 -2q45 -36 45 -72q0 -40 -56 -80l-374 16q-30 9 -58 5l31 -130q51 -3 119 -3q90 0 209 5q27 -22 35 -53q1 -9 1 -18q0 -26 -9 -45q-24 -21 -51 -29l-282 19l-11 -19q5 -146 105 -147l326 -7l43 -68q-13 -52 -460 -85q-91 22 -110 87z" />
<glyph unicode="F" horiz-adv-x="695" d="M-14 629l3 30q12 16 30 31l52 15q468 77 509 91h38q26 -4 34 -34l14 -68l-25 -35l-57 -27l-357 -37l-43 -22l8 -100l275 37q26 -3 40 -27l13 -30l-8 -12q-14 -17 -32 -31l-47 -19l-196 -36q-19 -7 -39 -21q-3 -4 -3 -22q0 -57 32 -252q-3 -23 -13 -47q-18 -12 -42 -24 q-20 7 -40 19l-103 582z" />
<glyph unicode="G" horiz-adv-x="750" d="M-10 163v7q0 125 146 376q149 260 479 309q112 -68 112 -103q0 -6 -3 -10q-20 -35 -59 -46q-315 -73 -425 -266q-69 -122 -69 -208q0 -51 24 -90q35 -6 69 -6q85 0 166 38q113 52 141 90q-26 15 -61 15q-45 0 -103 -25q-20 -8 -33 -8q-30 0 -30 39q0 37 27 110q15 5 78 5 q74 0 215 -7q87 -15 87 -81q0 -24 -11 -55q-33 -170 -354 -252q-88 -12 -156 -12q-88 0 -142 21q-93 35 -98 159z" />
<glyph unicode="H" horiz-adv-x="634" d="M23 685q-1 8 -1 16q0 56 57 88q88 -100 104 -340l-3 -42l271 -10q-13 182 -15 248v14q0 59 18 105q20 52 47 60q61 -40 60 -267v-50q42 -400 42 -470v-7q-3 -50 -57 -60q-15 -2 -27 -2q-31 0 -44 15q-18 21 -23 116.5t-14 118.5l-71 65l-151 4q-31 -27 -46 -49 q-9 -13 -9 -59q1 -32 5 -80q1 -14 1 -26q0 -83 -60 -83h-10q-70 8 -70 52q0 6 1 12z" />
<glyph unicode="I" horiz-adv-x="305" d="M-63 -14l111 620l72 49q34 -92 34 -284q0 -109 -11 -250q3 -135 -189 -135h-17zM2 723q-61 57 -61 94q0 54 129 67q82 -19 120 -83q-21 -84 -127 -84q-28 0 -61 6z" />
<glyph unicode="J" horiz-adv-x="583" d="M114 319l215 -202q46 -31 76 -31q39 0 52 52l-58 288l-29 144q-38 13 -86 13q-73 0 -170 -29q-92 46 -92 83q0 42 113 74q156 29 248 29q124 0 133 -52q15 -93 89 -501q-19 -240 -167 -240q-13 0 -26 2l-100 16q-299 166 -299 263q0 57 101 91z" />
<glyph unicode="K" horiz-adv-x="752" d="M-3 542q-2 39 -2 69q1 61 9 80q12 28 36 38q8 3 16 3q16 0 31 -14q22 -21 30 -54l13 -300l35 12q22 16 42.5 35.5t82.5 77t234 235.5q30 0 56 -22q11 -28 13 -61q1 -6 1 -11q0 -27 -17 -53l-269 -221l169 -121q25 -10 55 -17q15 4 30 4q70 0 118 -85q15 -34 15 -57 q-1 -34 -33 -45q-15 -5 -34 -5q-48 0 -121 34l-148 87q-127 67 -154 76l-24 -199q-17 -9 -32 -9q-69 0 -103 181q-42 221 -49 342z" />
<glyph unicode="L" horiz-adv-x="634" d="M-27 180l140 528l3 48l16 46q27 25 58 25q24 0 49 -15l10 -39v-69l-141 -477l-10 -34v-13q15 -13 33 -21l38 3l255 117l87 -6l42 -14q11 -14 18 -34q-6 -16 -18 -32q-11 -16 -28 -31q-442 -160 -460 -159q-51 13 -74 59l-17 73z" />
<glyph unicode="M" horiz-adv-x="858" d="M0 16q146 721 165.5 748.5t50.5 31.5q225 -416 247 -416h1l76 344q4 1 9 1q107 0 283 -649q-12 -71 -72 -71q-11 0 -24 3l-153 411q-73 -276 -111 -307q-3 -2 -6 -2q-45 0 -222 378q-100 -402 -160 -468q-17 -26 -39 -26q-20 0 -45 22z" />
<glyph unicode="N" horiz-adv-x="718" d="M27 31l45 640q15 27 37 54q30 -3 54 -25l320 -427q6 -2 11 -2q74 0 74 344q0 59 -2 129l-3 17l3 47l4 12q6 30 30 59q36 -3 57 -34l25 -59q11 -31 18 -71l-15 -592q-5 -30 -30 -60q-12 -28 -29 -54l-41 -9l-77 50l-341 318q2 -25 11 -361q-1 -41 -5 -78q-43 -5 -80 -7 q-21 20 -41 47q-15 27 -25 62z" />
<glyph unicode="O" horiz-adv-x="752" d="M212 386q24 190 350 270q49 12 91 11q239 0 260 -386q-66 -277 -321 -315q-12 -1 -24 -1q-174 0 -274 112q-88 97 -87 241q0 33 5 68zM344 376q-8 -33 -8 -64q0 -102 86 -170q70 -55 147 -56q46 0 93 20q129 54 129 240q0 178 -199 178h-7q-207 -2 -241 -148z" />
<glyph unicode="P" horiz-adv-x="685" d="M210 613q-13 27 -13 49q0 59 95 82q56 13 139 14q107 0 259 -24q182 -28 182 -106q0 -37 -40 -85q-125 -151 -301 -239l-140 -90l-11 -144v-6q0 -52 -63 -52q-9 0 -19 1l-74 560zM355 402q15 -26 44 -26q81 0 275 201q-62 55 -164 55q-61 0 -137 -20q-42 -64 -42 -123 q0 -45 24 -87z" />
<glyph unicode="Q" horiz-adv-x="780" d="M170 553q197 208 368 208q74 0 144 -39q94 -56 94 -164q0 -142 -165 -374l69 -72q7 -44 7 -75q0 -63 -31 -63q-40 0 -129 99l-200 -63l-111 -10q-243 1 -243 154q0 137 197 399zM182 370q-57 -110 -57 -170q0 -74 85 -75h4q151 0 187 73q-2 19 -2 36q0 104 61 104 q24 0 58 -16q118 158 118 232q0 54 -62 64q-11 1 -23 1q-143 0 -369 -249z" />
<glyph unicode="R" horiz-adv-x="704" d="M7 606q22 69 107 106q113 13 211 14q154 0 275 -33q5 -26 5 -51q0 -158 -196 -264q-72 -39 -72 -82q0 -95 331 -215q15 -26 15 -49q0 -35 -36 -59q-200 43 -459 238q2 -20 2 -39q0 -87 -37 -155l-84 11q-16 117 -26 527zM149 547q-7 -29 -7 -60q0 -60 28 -124 q223 90 280 247q-55 7 -101 7q-150 0 -200 -70z" />
<glyph unicode="S" horiz-adv-x="672" d="M45 200q33 60 75 60q60 0 140 -121q25 -2 49 -2q233 0 233 158q0 18 -3 38q-34 34 -220 50t-215 121q-5 17 -5 34q0 93 130 214q89 82 216 83q94 0 209 -45q-39 -103 -144 -103q-44 0 -101 18q-174 -67 -175 -125q0 -53 193 -59q201 -7 266 -129q30 -56 30 -108 q0 -64 -43 -124q-78 -110 -286 -149q-62 -12 -112 -12q-116 0 -165 64q-69 91 -72 137z" />
<glyph unicode="T" horiz-adv-x="676" d="M224 669q0 27 56 74l635 31q45 -4 45 -73q0 -80 -140 -80q-21 0 -45 2q-22 2 -41 2q-142 0 -142 -88v-7l28 -491l-21 -31q-15 -18 -32 -30h-8q-16 0 -29 6q-9 27 -14 54l-37 503l-17 46q-5 10 -36 10q-37 0 -112 -14q-6 -1 -11 -1q-51 0 -79 87z" />
<glyph unicode="U" horiz-adv-x="678" d="M-8 122q52 375 51 399q16 29 37 40l52 8l42 -64q-45 -216 -45 -308q0 -23 3 -38l346 -22l-164 456q-17 20 -34 35q-15 25 -24 49q50 40 75 40q25 -14 45 -27l37 -34l202 -486l17 -54l3 -16l-11 -45q-12 -26 -28 -44l-12 -3q-212 -14 -345 -14q-205 0 -223 33 q-25 46 -25 83q0 6 1 12z" />
<glyph unicode="V" horiz-adv-x="663" d="M-24 734l12 54q12 23 24 39l40 -13q22 -14 34 -35l15 -51l183 -437l31 35l172 452l71 65l11 6q19 0 35 -4l14 -7v-40l-13 -110q-266 -651 -276 -671q-14 -17 -30 -24q-20 16 -34 33l-26 35q-14 26 -23 47l-228 566z" />
<glyph unicode="W" horiz-adv-x="977" d="M5 678q1 46 9 82q15 35 46 50l45 -46l41 -60l7 -62q12 -46 14 -82l9 -77l23 -50q8 -58 29 -87l9 -5l14 9l4 46l23 68q4 41 18 73l32 59l64 27q33 -15 54 -41l32 -59q9 -48 9 -82l41 -136l18 -23l32 14l37 59l150 387q30 23 63 27l78 -9l22 -18l5 -46q-10 -41 -27 -68 l-64 -114l-23 -68q-16 -38 -18 -73q-17 -32 -27 -64l-14 -77q-15 -36 -23 -68l-22 -64q-10 -44 -23 -73l-23 -63q-18 -10 -36 -14l-28 19l-45 45l-32 54q-21 36 -27 69l-87 182l-22 4l-23 -132q-13 -41 -14 -73q-2 -45 -13 -82q-18 -32 -37 -54q-36 11 -63 27l-37 55 q-19 37 -23 68l-18 68q-11 46 -13 82l-28 59q-12 36 -27 64q-11 36 -27 64l-23 68q-15 36 -23 68z" />
<glyph unicode="X" horiz-adv-x="701" d="M24 8q9 29 20 51l64 88l42 34q17 20 37 33l34 42l37 33l63 84q-21 19 -51 37l-37 32q-53 19 -69 45l-126 133l19 80l13 25h42l87 -58l130 -164l42 -33q26 1 47 12l100 117q24 16 42 33l50 26l13 9l42 -13q13 -25 20 -51l-4 -62q-13 -28 -29 -46q-16 -23 -33 -38l-71 -80 q-15 -24 -22 -50q11 -28 25 -50l139 -155l24 -50l9 -13q-4 -22 -13 -42l-54 -35l-42 12q-17 23 -25 49l-54 96q-17 22 -34 37l-33 38q-31 12 -59 17q-24 -17 -42 -33l-74 -95l-40 -45q-25 -36 -42 -69l-45 -29q-27 -10 -54 -13l-59 18q-17 22 -29 43z" />
<glyph unicode="Y" horiz-adv-x="828" d="M4 350q3 105 17 132l279 280q59 10 96 10q62 0 62 -29q0 -35 -97 -115q-191 -158 -191 -187q0 -5 5 -6q430 102 528 286l-4 17l9 47q17 20 38 38h38q58 -74 58 -141q0 -88 -100 -163q-178 -132 -194 -155q-5 -9 -5 -59q0 -81 15 -271l-4 -13q-25 -17 -60 -21 q-24 11 -46 30l-39 264q-4 28 -34 39l-273 -39l-60 17q-19 16 -38 39z" />
<glyph unicode="Z" horiz-adv-x="728" d="M8 47l4 38q8 33 201 288.5t210 283.5l8 34l-28 4l-237 -46q-127 15 -127 63q0 27 40 63l574 59q30 -4 58 -25l-468 -569l-13 -34l20 -9q351 -112 351 -146q0 -2 -1 -4l-46 -34l-520 14z" />
<glyph unicode="[" horiz-adv-x="569" />
<glyph unicode="\" horiz-adv-x="569" />
<glyph unicode="]" horiz-adv-x="569" />
<glyph unicode="^" horiz-adv-x="961" />
<glyph unicode="_" horiz-adv-x="1139" />
<glyph unicode="`" />
<glyph unicode="a" horiz-adv-x="689" d="M-42 4q13 57 282 589l89 31l33 -62l271 -490l-11 -68l-58 -7l-47 27l-133 176l-185 -3l-33 -14l-86 -162l-26 -24l-30 -21l-36 7zM217 298q117 10 154 18l-87 163z" />
<glyph unicode="b" horiz-adv-x="496" d="M29 405l6 203q108 41 199 41q95 0 172 -45q28 -42 28 -83q0 -82 -117 -156l131 -94q43 -29 43 -70q0 -38 -38 -87q-69 -115 -360 -132l-28 15l-33 49zM135 525q-11 -46 -11 -77q0 -58 40 -58q20 0 50 14q101 49 101 97q0 9 -4 18q-39 34 -86 34q-42 0 -90 -28zM148 136 q26 -25 58 -25q65 0 156 98q-80 62 -148 62q-30 0 -57 -12z" />
<glyph unicode="c" horiz-adv-x="779" d="M3 190l19 52l346 312l86 42l49 14h34q48 -66 48 -131q0 -21 -5 -42l-9 -7q-14 -19 -40 -28l-40 28l-31 35q-24 -2 -46 -11l-254 -263q-1 -8 -1 -15q0 -64 110 -64q18 0 38 2q316 95 361.5 115t113.5 38v-77q-14 -15 -37 -31q-189 -99 -420 -155l-122 -4h-10q-77 0 -97 14 q-21 16 -41 27.5t-33.5 31.5t-18.5 117z" />
<glyph unicode="d" horiz-adv-x="704" d="M97 531l56 55q144 -25 498 -192q53 -36 64 -122l-3 -9q-6 -16 -109 -86l-436 -206q-49 41 -49 71q0 15 12 28l55 40l-9 299q-2 17 -13 33l-45 6q-29 16 -29 46q0 16 8 37zM276 174l12 -21l263 137l16 33q-31 21 -215 101q-30 5 -67 6q-9 -28 -9 -256z" />
<glyph unicode="e" horiz-adv-x="714" d="M1 496l587 93q34 -70 34 -112q0 -33 -21 -50q-52 2 -103 2q-180 0 -354 -27l-16 -18l22 -67q128 11 216 11q76 0 122 -8q37 -7 37 -23q0 -26 -104 -78q-215 -13 -243 -28l-11 -10q-2 -11 -2 -21q0 -60 61 -60q12 0 26 2q98 16 347 24q64 -51 64 -84q0 -22 -29 -34 q-72 -32 -290 -42q-47 -2 -84 -2q-140 0 -158 26q-24 33 -58.5 160.5t-42.5 345.5z" />
<glyph unicode="f" horiz-adv-x="442" d="M183 600l405 70q51 -31 51 -65q0 -27 -31 -56l-301 -32l4 -116q91 16 151 16q75 0 103 -25l-4 -67l-239 -45l25 -243q-54 -44 -133 -44h-16z" />
<glyph unicode="g" horiz-adv-x="668" d="M54 225q45 198 226 311.5t298 121.5q10 1 19 1q64 0 64 -38q0 -18 -15 -44q-39 -71 -59 -71q-5 0 -9 4q-8 10 -28 10q-27 0 -74 -16q-83 -30 -195.5 -119.5t-126.5 -162.5q-2 -9 -2 -17q0 -59 86 -84q37 -5 71 -5q118 0 188 64q21 20 21 30t-22 10q-48 0 -194 -45h-44 q-40 33 -40 55q0 15 19 26q47 26 243 56q59 8 101 8q96 0 102 -47q1 -9 1 -18q0 -60 -45 -128q-87 -118 -308 -118q-27 0 -57 1q-227 15 -227 161q0 25 7 54z" />
<glyph unicode="h" horiz-adv-x="650" d="M0 488q-8 58 -8 99q0 102 49 102q5 0 11 -1q48 -6 48 -160v-22q0 -5 -1 -9q0 -161 112 -162q3 1 6 1q121 4 161 12q25 5 24 41q0 22 -9 54q-18 64 -18 120q1 21 3 39q7 60 51 59q9 0 19 -2q14 -16 33.5 -92t44.5 -173q57 -23 57 -57q0 -22 -23 -50q2 -77 48 -233 q-18 -61 -62 -61q-10 1 -20 3q-60 16 -82 131l-16 106q-15 1 -31 1q-93 0 -237 -34l24 -139q-22 -8 -42 -8q-51 0 -98 48l-36 226z" />
<glyph unicode="i" horiz-adv-x="249" d="M6 216l7 127q10 243 57 243q4 0 10 -2q42 -21 42 -100q0 -28 -5 -63l22 -324v-10q0 -66 -63 -111q-10 -7 -18 -7q-50 0 -52 247zM46 741q35 13 62 13q55 0 78 -54q7 -17 7 -29q0 -34 -55 -34q-20 0 -46 4q-78 12 -78 47q0 22 32 53z" />
<glyph unicode="j" horiz-adv-x="351" d="M126 231l92 -81l97 -68l16 88l-6 184l-36 161q-75 30 -99 48q-9 6 -9 14q0 16 33 41q32 25 102 25q38 0 89 -8q17 -7 45 -611q-2 -122 -72 -122q-15 0 -32 5l-41 16q-282 245 -282 263t103 45z" />
<glyph unicode="k" horiz-adv-x="704" d="M0 366l11 110l3 10q3 25 14 57l22 46q14 17 35 35l32 4l11 -25l3 -35l-3 -11v-14l3 -35l-3 -11v-14l-25 -113v-54l-4 -10q2 -27 11 -60l21 -4l14 25q3 25 18 49q14 18 35 36l43 25l39 31l64 71q16 15 35 36l67 67l82 57l46 21q23 -9 46 -25l7 -50l-43 -38l-85 -54 l-35 -35l-57 -78q-11 -21 -28 -42l-7 -25l3 -11l54 -35l184 -89l39 -28q13 -18 21 -42l-21 -46l-14 -22l-32 4l-99 39q-23 8 -47 21l-49 21q-19 14 -43 25q-21 12 -46 21l-42 29l-50 -4l-39 -42l-39 -96l-24 -46q-16 -16 -36 -31l-39 -4l-10 18l-32 106z" />
<glyph unicode="l" horiz-adv-x="454" d="M11 60l4 546q11 21 35 39q11 2 21 2q39 0 48 -27l8 -491l18 -4l242 88q30 -2 57 -20l11 -19l-7 -38l-36 -39l-362 -101h-10l-11 6q-15 25 -18 58z" />
<glyph unicode="m" horiz-adv-x="790" d="M0 76q3 26 10 62l214 430q23 14 55 18q24 -11 45 -28l66 -220q24 0 37 24l156 276q30 20 50 20q25 0 32 -34l90 -483l-3 -65q-5 -27 -25 -52l-20 -3l-28 17q-20 15 -31 41q-14 23 -72 286l-11 24l-24 -13l-117 -238q-9 -22 -31 -42q-26 6 -48 25q-94 222 -121 227 l-117 -314q-15 -18 -38 -34q-22 10 -45 28q-13 21 -24 48z" />
<glyph unicode="n" horiz-adv-x="572" d="M0 498l4 7l3 9q18 9 42 14q19 -5 37 -18l52 -51l262 -263l7 31l-4 12l-6 319l10 43l34 18q23 0 39 -18l6 -46l59 -441v-50l-14 -37q-9 -15 -27 -27q-21 2 -63 17q-247 178 -310 308q31 -140 28 -162l-31 -72l-35 -18q-19 2 -38 11q-6 18 -6 39l-32 312l-13 39z" />
<glyph unicode="o" horiz-adv-x="709" d="M100 268q66 228 398 293q31 3 57 2q192 0 193 -130q0 -88 -87 -234q-133 -175 -301 -233q-78 -27 -137 -26q-67 0 -109 34q-43 36 -44 120q0 70 30 174zM189 72q7 -29 39 -29q50 0 159 69q180 115 237 265q13 34 13 56q0 45 -51 45q-37 0 -100 -23q-195 -73 -255 -191 q-46 -91 -46 -156q0 -19 4 -36z" />
<glyph unicode="p" horiz-adv-x="620" d="M121 458q-36 43 -36 85q0 57 69 111h34q472 0 472 -130q0 -118 -392 -345l4 -44l28 -91q-48 -42 -81 -42q-44 0 -65 70zM258 300q237 115 237 180t-234 80q-51 -4 -51 -70q0 -65 48 -190z" />
<glyph unicode="q" horiz-adv-x="828" d="M-7 76q-7 32 -7 64q0 117 96 228q123 140 217.5 192t233.5 93q46 13 88 13q86 0 158 -56v-111l-18 -93l-57 -115q-14 -39 -79 -125q33 -63 53 -130l8 -46q-6 -20 -128 -23l-73 138l-40 -7l-197 -83l-101 -11q-114 27 -130 39t-24 33zM152 157q7 -21 36 -21q47 0 153 58 l73 39l-12 80q32 30 66 30q22 0 45 -12l22 -43q115 120 115 191q0 12 -4 22q-10 33 -52 33q-51 0 -150 -49q-180 -89 -245 -181q-51 -72 -51 -121q0 -14 4 -26z" />
<glyph unicode="r" horiz-adv-x="790" d="M29 57q-30 237 -30 376q0 183 52 197q433 -26 547 -116q36 -28 36 -60q0 -70 -174 -157l-45 -10q-86 -16 -86 -36q-1 -9 23 -21q68 -32 369 -144q42 5 42 -13q0 -21 -105 -65q-302 82 -518 155q-4 -16 -4 -41q0 -16 2 -34q1 -10 0 -19q0 -34 -10 -48q-12 -17 -31 -17h-3 q-21 2 -65 53zM142 315q223 18 330 141q-158 47 -333 59q-27 -70 -27 -128q0 -65 30 -72z" />
<glyph unicode="s" horiz-adv-x="722" d="M79 122q20 22 128 35q80 -16 150 -16q134 0 235 58l-36 45l-224 20q-80 -6 -129 -6q-55 0 -71 8q-30 14 -40 72q0 3 -1 6q0 59 195 183q204 129 320 137q10 1 19 1q80 0 80 -49q0 -9 -3 -20q-18 -73 -84 -73h-5q-9 14 -39 14q-37 0 -106 -22l-229 -155h34q444 0 504 -129 l-9 -36q-54 -145 -354 -195q-68 -11 -123 -12q-186 0 -212 134z" />
<glyph unicode="t" horiz-adv-x="678" d="M84 502q-19 3 -19 21q0 30 56 101q320 72 480 72q158 0 157 -71q0 -23 -16 -53l-280 -28l55 -495q-24 -40 -53 -40q-31 0 -68 45q-68 303 -76 458q-127 -12 -191 -12q-29 0 -45 2z" />
<glyph unicode="u" horiz-adv-x="661" d="M95 -61q-35 25 -35 96q0 141 137 464q46 41 79 41q4 0 10 -1q30 -7 30 -46q0 -8 -1 -17q-135 -285 -135 -365q0 -10 2 -16l346 91l-72 335q14 39 42 46q9 2 18 2q18 0 36 -9l112 -357q-12 -123 -110 -152z" />
<glyph unicode="v" horiz-adv-x="510" d="M14 590q102 -4 193 -377q9 -12 22 -23q14 4 23 16l75 436l23 23h53q16 -5 33 -13l15 -32l-124 -608l-25 -18l-26 -7l-49 16q-9 11 -163 301q-92 174 -92 243q0 44 38 44q2 -1 4 -1z" />
<glyph unicode="w" horiz-adv-x="910" d="M0 579l26 57q17 8 38 11l17 -19q123 -313 188 -349l116 286q12 5 30 11l26 -19q13 -24 179 -305q32 5 34 38l136 344q21 26 42 26q36 0 74 -73l-8 -8q-213 -542 -240 -564q-28 11 -56 30l-179 309q-35 -60 -90 -347l-26 -7q-28 8 -307 579z" />
<glyph unicode="x" horiz-adv-x="607" d="M34 28q-1 4 -1 8q0 72 176 284q18 16 18 38q0 66 -153 190q-1 3 -1 7q0 30 48 114q176 -236 216 -236q2 0 4 1l137 157q32 5 53 5q44 0 45 -20l-196 -212q224 -204 224 -256q0 -8 -5 -12q-6 -5 -17 -5q-57 0 -240 148l-36 10l-15 -2q-202 -268 -223 -282h-2q-20 0 -32 63 z" />
<glyph unicode="y" horiz-adv-x="771" d="M40 424l33 80l226 175q25 9 53 -24q5 -6 5 -14q0 -38 -113 -129q-62 -50 -62 -74q0 -21 49 -21q17 0 40 3q163 18 336 104q20 33 20 65q0 40 -30 79q32 76 93 76q22 0 47 -9l31 -151q-2 -25 -14 -56l-26 -42l-272 -123q-16 -15 -24 -42q10 -81 10 -142q0 -159 -69 -183 q-15 -5 -27 -5q-47 0 -47 77q0 29 7 68q14 89 14 134q0 42 -13 45l-234 10l-29 36z" />
<glyph unicode="z" horiz-adv-x="681" d="M0 462q7 12 23 57l421 113h130q52 -30 52 -74q0 -17 -7 -36q-131 -158 -348 -394l300 4h13q54 0 54 -25q0 -23 -42 -65q-65 -32 -487 -63l-14 13v50l25 46l169 207l146 212h-51l-240 -57l-53 -9l-49 -22q-18 11 -35 27z" />
<glyph unicode="{" horiz-adv-x="684" />
<glyph unicode="|" horiz-adv-x="532" />
<glyph unicode="}" horiz-adv-x="684" />
<glyph unicode="~" horiz-adv-x="1196" />
<glyph unicode="&#xa1;" />
<glyph unicode="&#xa2;" horiz-adv-x="1139" />
<glyph unicode="&#xa3;" horiz-adv-x="1139" />
<glyph unicode="&#xa5;" horiz-adv-x="1139" />
<glyph unicode="&#xa6;" horiz-adv-x="532" />
<glyph unicode="&#xa7;" horiz-adv-x="1139" />
<glyph unicode="&#xa8;" />
<glyph unicode="&#xa9;" horiz-adv-x="1509" />
<glyph unicode="&#xaa;" horiz-adv-x="758" />
<glyph unicode="&#xab;" horiz-adv-x="721" />
<glyph unicode="&#xac;" horiz-adv-x="1196" />
<glyph unicode="&#xad;" horiz-adv-x="536" d="M71 392q19 19 49 25l337 10q29 -14 16 -41l-48 -29l-100 -35q-79 -10 -228 27q-19 17 -26 43z" />
<glyph unicode="&#xae;" horiz-adv-x="1509" />
<glyph unicode="&#xaf;" horiz-adv-x="1131" />
<glyph unicode="&#xb0;" horiz-adv-x="819" />
<glyph unicode="&#xb1;" horiz-adv-x="1124" />
<glyph unicode="&#xb2;" />
<glyph unicode="&#xb3;" />
<glyph unicode="&#xb4;" />
<glyph unicode="&#xb5;" horiz-adv-x="1180" />
<glyph unicode="&#xb6;" horiz-adv-x="1100" />
<glyph unicode="&#xb7;" />
<glyph unicode="&#xb8;" />
<glyph unicode="&#xb9;" />
<glyph unicode="&#xba;" horiz-adv-x="748" />
<glyph unicode="&#xbb;" horiz-adv-x="1139" />
<glyph unicode="&#xbc;" horiz-adv-x="1708" />
<glyph unicode="&#xbd;" horiz-adv-x="1708" />
<glyph unicode="&#xbe;" horiz-adv-x="1708" />
<glyph unicode="&#xbf;" horiz-adv-x="1251" />
<glyph unicode="&#xc0;" horiz-adv-x="1366" />
<glyph unicode="&#xc1;" horiz-adv-x="1366" />
<glyph unicode="&#xc2;" horiz-adv-x="1366" />
<glyph unicode="&#xc3;" horiz-adv-x="1366" />
<glyph unicode="&#xc4;" horiz-adv-x="1366" />
<glyph unicode="&#xc5;" horiz-adv-x="1366" />
<glyph unicode="&#xc6;" horiz-adv-x="2048" />
<glyph unicode="&#xc7;" horiz-adv-x="1479" />
<glyph unicode="&#xc8;" horiz-adv-x="1366" />
<glyph unicode="&#xc9;" horiz-adv-x="1366" />
<glyph unicode="&#xca;" horiz-adv-x="1366" />
<glyph unicode="&#xcb;" horiz-adv-x="1366" />
<glyph unicode="&#xcc;" horiz-adv-x="569" />
<glyph unicode="&#xcd;" horiz-adv-x="569" />
<glyph unicode="&#xce;" horiz-adv-x="569" />
<glyph unicode="&#xcf;" horiz-adv-x="569" />
<glyph unicode="&#xd0;" horiz-adv-x="1479" />
<glyph unicode="&#xd1;" horiz-adv-x="1479" />
<glyph unicode="&#xd2;" horiz-adv-x="1593" />
<glyph unicode="&#xd3;" horiz-adv-x="1593" />
<glyph unicode="&#xd4;" horiz-adv-x="1593" />
<glyph unicode="&#xd5;" horiz-adv-x="1593" />
<glyph unicode="&#xd6;" horiz-adv-x="1593" />
<glyph unicode="&#xd7;" horiz-adv-x="1196" />
<glyph unicode="&#xd8;" horiz-adv-x="1593" />
<glyph unicode="&#xd9;" horiz-adv-x="1479" />
<glyph unicode="&#xda;" horiz-adv-x="1479" />
<glyph unicode="&#xdb;" horiz-adv-x="1479" />
<glyph unicode="&#xdc;" horiz-adv-x="1479" />
<glyph unicode="&#xdd;" horiz-adv-x="1366" />
<glyph unicode="&#xde;" horiz-adv-x="1366" />
<glyph unicode="&#xdf;" horiz-adv-x="1251" />
<glyph unicode="&#xe0;" horiz-adv-x="535" d="M-36 6q12 64 20 80l205 453l-12 28l16 28l24 15l40 -3l25 -19l12 -27l15 -25l136 -394l18 -65l3 -37l-31 -54h-33l-32 12l-50 86l-244 -16q14 -102 -59 -107l-9 -7zM53 773v10q17 12 38 32q12 1 26 -3l201 -96l51 -5q8 -12 14 -29l-3 -32q-9 -25 -27 -36 q-266 102 -275 111l-19 22zM134 188l9 -9l114 12q5 10 9 25q-33 108 -58 120z" />
<glyph unicode="&#xe1;" horiz-adv-x="1139" />
<glyph unicode="&#xe2;" horiz-adv-x="602" d="M-59 63l114 188q6 13 14 28l74 143l53 123l11 28v5l61 22l36 -6q12 -9 23 -22q-1 -18 134 -531l6 -40l-15 -28q-11 -11 -26 -20q-115 102 -108 148l-269 -58q-9 -10 -41 -44q-9 -11 -22 -20q-12 7 -23 17l-18 25zM88 590q-15 42 8 69l79 86l50 34q22 17 75 15 q31 -3 76.5 -44.5t50.5 -92.5q-69 -39 -105 -13l-61 44q-2 -3 -26 -8l-139 -98zM118 198l4 -13l201 17q-80 183 -98 190z" />
<glyph unicode="&#xe3;" horiz-adv-x="1139" />
<glyph unicode="&#xe4;" horiz-adv-x="534" d="M-35 18l211 488l-11 27l15 26l23 15l38 -4l23 -17l12 -26l14 -23l148 -468q-4 -14 -11 -29l-18 -23l-24 -3l-8 3l-70 86q-5 12 -14 24l-199 -16l-80 -117l-9 -7l-16 9l-17 24zM7 624q7 58 59 83q82 7 113 -25q-4 -25 -59 -84q-89 12 -113 26zM125 175l8 -9l108 12 q5 10 -9 67.5t-38 69.5q-63 -112 -69 -140zM226 665q7 26 58 83q83 13 114 -25q-5 -78 -59 -83q-90 -11 -113 25z" />
<glyph unicode="&#xe5;" horiz-adv-x="1139" />
<glyph unicode="&#xe6;" horiz-adv-x="1821" />
<glyph unicode="&#xe7;" horiz-adv-x="726" d="M-44 164q155 338 476 466l53 21q24 6 52 19q23 -10 40 -34l24 -49l3 -12l-3 -52h3q0 -27 -9 -59q-16 -18 -31 -42l-19 -18l-30 5q-11 22 -21 49q-1 28 -18 55q-148 -65 -389 -308l12 -13l34 -58l324 27l68 -9q15 -16 27 -43q-19 -51 -131.5 -65t-143.5 -24 q-19 -17 -25 -44q-63 -186 -83 -209q-19 -18 -69.5 -7t63.5 212l6 24l-30 5l-49 -5l-6 3l-9 2q-22 10 -82.5 50t-36.5 113z" />
<glyph unicode="&#xe8;" horiz-adv-x="597" d="M-17 11q6 567 109 569l167 19l-66 86l-21 53q2 31 18 60q28 -7 49 -30l90 -136q12 -22 35 -37l108 7l25 -7q25 -10 38 -38q-4 -29 -14 -64q-25 -6 -59 -7q-292 -15 -325 -23l-24 -113l7 -7l38 3l11 -3l258 33q26 -6 49 -26l14 -15q-1 -20 -7 -41q-20 -15 -49 -31 l-314 -33q-21 -12 -42 -30q3 -28 31 -34l325 18l63 -3l28 -49q4 -12 7 -30l-18 -23l-432 -64l-32 -15z" />
<glyph unicode="&#xe9;" horiz-adv-x="659" d="M0 248q2 33 17 67l32 139q12 28 38 49l53 35l70 18q27 11 42 42q6 29 21 66l31 56q15 23 39 46q21 19 52 38q23 14 56 28q28 0 56 -10l4 -21q-10 -27 -32 -53q-16 -26 -42 -49q-16 -22 -42 -42l-45 -42l-11 -17l46 10q27 6 63 18l122 10l11 -3l10 -18l11 -42l-11 -24 q-30 -11 -70 -18l-70 -14l-84 -3l-140 -32q-23 -12 -52 -35l-21 -28q1 -14 7 -31l14 -3l140 14q31 3 66 17l74 14q34 7 77 10q24 -14 42 -45q-14 -26 -42 -45q-25 -13 -63 -25q-34 -10 -74 -14l-227 -31q-26 -15 -39 -46q6 -31 28 -59q14 -27 46 -39l38 -14l102 21l122 49 q29 8 63 25q33 4 70 17q29 -2 56 -24l7 -35l-10 -35q-11 -30 -46 -42l-73 -14q-34 -3 -70 -18l-67 -17q-29 -10 -70 -18l-66 -17q-36 -9 -81 -11l-35 -3q-16 3 -35 10q-22 21 -42 49l-28 56l-21 67q-4 30 -17 66z" />
<glyph unicode="&#xea;" horiz-adv-x="652" d="M31 489q1 73 436 66q26 -1 53 -15q20 -13 22 -38l-34 -34q-24 -11 -54 -17q-27 -5 -263 0q-26 0 -54 -11q-10 -25 -12 -57q23 -11 336 12l9 -3h12q24 -7 44 -28l7 -9l-7 -47q-11 -22 -37 -32l-317 -21q-25 -3 -50 -17q-11 -79 22 -115l351 96q24 8 57 13l28 4l9 -4 l12 -15q11 -26 13 -57q-5 -23 -22 -47l-501 -110l-37 -3l-17 15zM96 658q106 178 245 166q35 -4 95 -86.5t52 -125.5q-100 -28 -146 19.5t-74 62.5l-169 -104q-28 38 -3 68z" />
<glyph unicode="&#xeb;" horiz-adv-x="684" d="M7 28l40 542l437 9q28 -1 56 -16q21 -13 23 -39l-36 -36q-25 -11 -191 -14t-195 -15q-12 -26 -5 -59t97.5 -33t111.5 -23l7 -9l-7 -49q-12 -23 -220 -37q-12 -45 -16 -111l9 -7l29 -3l253 72l202 46l10 -4l13 -16q11 -26 13 -59q-6 -24 -23 -49l-523 -115l-39 -3z M118 650q5 123 185 62q-18 -76 -89 -76.5t-96 14.5zM344 639.5q3 45.5 21 69.5q176 35 97 -80q-121 -35 -118 10.5z" />
<glyph unicode="&#xec;" horiz-adv-x="569" />
<glyph unicode="&#xed;" horiz-adv-x="569" />
<glyph unicode="&#xee;" horiz-adv-x="327" d="M-25 627q-11 54 7 87q122 176 166 172q25 -3 111 -149q0 -39 -6 -86l-16 -39l-23 33q-89 183 -233 -28zM38 556q8 65 63.5 41t61.5 -78l19 -494l-21 -34q-80 -31 -112.5 -10.5t-8.5 106.5z" />
<glyph unicode="&#xef;" horiz-adv-x="427" d="M-69 666q-12 51 64 90l120 -27q-8 -68 -63 -90q-83 -29 -121 27zM46 21l17 494q5 55 53 78.5t55 -41.5l-2 -469q21 -86 -7 -106t-97 10zM152 673q8 54 63 89q92 19 122 -26q-5 -66 -63 -89q-96 11 -122 26z" />
<glyph unicode="&#xf0;" horiz-adv-x="1139" />
<glyph unicode="&#xf1;" horiz-adv-x="1139" />
<glyph unicode="&#xf2;" horiz-adv-x="1139" />
<glyph unicode="&#xf3;" horiz-adv-x="1139" />
<glyph unicode="&#xf4;" horiz-adv-x="724" d="M87.5 298.5q73.5 262.5 367 296t282.5 -255t-540 -339.5q-183 36 -109.5 298.5zM165.5 234.5q-78.5 -223.5 419.5 -2.5q105 183 -20 231q-321 -5 -399.5 -228.5zM366 607q-131 59 116 183q48 40 137.5 -27.5t47.5 -102.5t-164 44z" />
<glyph unicode="&#xf5;" horiz-adv-x="1139" />
<glyph unicode="&#xf6;" horiz-adv-x="705" d="M29 164q236 371 387 443.5t240 -14.5l16 -27q34 -462 -235 -534l-66 -26q-153 -69 -271 -15q-88 9 -71 173zM250 250q-181 -274 184 -94l31 21q101 147 99 258.5t-129 39.5l-31 -24zM303 691q1 50 55 76q66 45 104 -22q5 -59 -54 -77q-87 -13 -105 23zM524 713 q6 45 54 77q82 6 104 -23q8 -55 -54 -76q-65 -16 -104 22z" />
<glyph unicode="&#xf7;" horiz-adv-x="1124" />
<glyph unicode="&#xf8;" horiz-adv-x="1251" />
<glyph unicode="&#xf9;" horiz-adv-x="673" d="M-10 71l1 54q8 21 19 45l29 31l197 309l35 24q22 11 48 16q20 -10 28 -34q-3 -26 -14 -53l-203 -299l-6 -26l4 -7l12 -8l48 -20l57 -8l98 20q21 5 45 17l38 20l33 395l1 9l7 57q16 14 42 20q26 -4 45 -23q9 -19 17 -42l10 -440l-2 -27l-15 -22l-28 -32l-80 -44l-99 -18 q-24 -2 -51 -10l-158 -5l-69 6l-45 16l-32 31zM224 844q24 9 333 -128q17 -24 -132 -36.5t-201 164.5z" />
<glyph unicode="&#xfa;" horiz-adv-x="1139" />
<glyph unicode="&#xfb;" horiz-adv-x="764" d="M-43 111l5 16l190 492l41 32q21 12 48 23q27 -1 77 -41q-11 -24 -28 -47q-19 -14 -176 -369l-10 -29l16 -9l366 63q23 8 49 24l-34 310l25 51l40 28q22 -13 37 -40q-2 -24 -8 -51l37 -457q-10 -24 -28 -47q-18 -12 -41 -20q-23 14 -41 36q-9 23 -36 23l-362 -67l-118 -12 l-12 4q-16 18 -28 44zM257 846l92 98l57 38q26 19 99 26q138 -101 153 -137q-1 -35 -10 -78l-23 -34l-30 9l-166 111l-105 -84l-57 -25l-8 9q-28 38 -2 67z" />
<glyph unicode="&#xfc;" horiz-adv-x="711" d="M3 126q7 23 19 48l224 361l38 27q23 13 52 21q24 -10 34 -34q0 -26 -11 -54l-57 -75l-37 -27l-90 -172q-11 -20 -18 -44l-4 -27l4 -7l15 -7l351 81l11 41l-3 10l-38 321v11l4 57q16 15 45 24q29 -3 52 -21q12 -17 23 -40l48 -446v-28l-15 -23l-30 -34l-459 -122l-98 28 l-37 30l-19 47zM171 737q5 34 36.5 78.5t169.5 13.5q-3 -32 -16 -69q-124 -108 -190 -23zM426 768q6 33 24 64l40 46q112 19 143 -19q11 -75 -63 -110q-92 -52 -144 19z" />
<glyph unicode="&#xfd;" horiz-adv-x="1024" />
<glyph unicode="&#xfe;" horiz-adv-x="1139" />
<glyph unicode="&#xff;" horiz-adv-x="1024" />
<glyph unicode="&#x152;" horiz-adv-x="1203" />
<glyph unicode="&#x153;" horiz-adv-x="1330" d="M-4 124l4 47q4 19 14 39q7 17 182 251l154 118l111 50l75 10l7 -3h11l47 -7l28 -29l54 -104q8 -16 21 -35q5 -15 18 -26l11 43l39 72l29 25l215 107l107 -3l29 -25q12 -13 21 -32l15 -40q-1 -21 -8 -43q-17 -8 -39 -14l-50 -4h-50l-226 -93q-6 -17 -7 -39q13 -13 32 -22 l97 11l129 36l39 -14l25 -29q5 -23 7 -50q-2 -17 -14 -32q-306 -90 -318 -104l-4 -79l405 161l32 7l10 -7q10 -16 26 -32q6 -17 7 -39l-25 -29q-15 -10 -29 -25l-462 -171l-10 3q-16 12 -29 28q-5 19 -14 40q-7 18 -11 43q-1 22 -7 46l-4 15l7 60q-1 6 -7 8l-79 -83l-96 -68 l-36 -18q-14 -11 -32 -21l-79 -28l-36 -18l-46 -7l-40 -15l-50 -3l-46 3l-79 29l-29 25l-39 71zM107 156q14 -12 32 -21q226 -115 472 179l4 50l-14 39q-7 19 -18 40l-29 21l-104 4q-21 -4 -43 -15l-39 -14l-68 -39l-183 -201z" />
<glyph unicode="&#x178;" horiz-adv-x="1366" />
<glyph unicode="&#x2c6;" />
<glyph unicode="&#x2dc;" />
<glyph unicode="&#x2000;" />
<glyph unicode="&#x2001;" horiz-adv-x="1365" />
<glyph unicode="&#x2002;" />
<glyph unicode="&#x2003;" horiz-adv-x="1365" />
<glyph unicode="&#x2004;" horiz-adv-x="455" />
<glyph unicode="&#x2005;" horiz-adv-x="341" />
<glyph unicode="&#x2006;" horiz-adv-x="227" />
<glyph unicode="&#x2007;" horiz-adv-x="227" />
<glyph unicode="&#x2008;" horiz-adv-x="170" />
<glyph unicode="&#x2009;" horiz-adv-x="273" />
<glyph unicode="&#x200a;" horiz-adv-x="75" />
<glyph unicode="&#x2010;" horiz-adv-x="536" d="M71 392q19 19 49 25l337 10q29 -14 16 -41l-48 -29l-100 -35q-79 -10 -228 27q-19 17 -26 43z" />
<glyph unicode="&#x2011;" horiz-adv-x="536" d="M71 392q19 19 49 25l337 10q29 -14 16 -41l-48 -29l-100 -35q-79 -10 -228 27q-19 17 -26 43z" />
<glyph unicode="&#x2012;" horiz-adv-x="536" d="M71 392q19 19 49 25l337 10q29 -14 16 -41l-48 -29l-100 -35q-79 -10 -228 27q-19 17 -26 43z" />
<glyph unicode="&#x2013;" horiz-adv-x="1139" />
<glyph unicode="&#x2014;" horiz-adv-x="2048" />
<glyph unicode="&#x2018;" horiz-adv-x="455" />
<glyph unicode="&#x2019;" horiz-adv-x="455" />
<glyph unicode="&#x201a;" horiz-adv-x="455" />
<glyph unicode="&#x201c;" />
<glyph unicode="&#x201d;" />
<glyph unicode="&#x201e;" />
<glyph unicode="&#x2022;" horiz-adv-x="717" />
<glyph unicode="&#x2026;" horiz-adv-x="2048" />
<glyph unicode="&#x202f;" horiz-adv-x="273" />
<glyph unicode="&#x2039;" />
<glyph unicode="&#x203a;" />
<glyph unicode="&#x205f;" horiz-adv-x="341" />
<glyph unicode="&#x20ac;" horiz-adv-x="1139" />
<glyph unicode="&#x2122;" horiz-adv-x="2048" />
<glyph unicode="&#x25fc;" horiz-adv-x="670" d="M0 0v670h670v-670h-670z" />
<glyph unicode="&#xfb01;" horiz-adv-x="1024" />
<glyph unicode="&#xfb02;" horiz-adv-x="1024" />
</font>
</defs>
</svg>
